<svg width="0" height="0" class="hidden">
  <symbol viewBox="0 0 21 23" xmlns="http://www.w3.org/2000/svg" id="calendar">
    <path fill-rule="evenodd" clip-rule="evenodd" d="M16.406 3.025h2.845c.966 0 1.749.822 1.749 1.837v16.302C21 22.179 20.217 23 19.251 23H1.75C.784 23 0 22.179 0 21.164V4.862c0-1.015.784-1.837 1.75-1.837h2.843V1.648c0-.381.294-.689.657-.689.362 0 .656.308.656.689v1.377h3.938V1.648c0-.381.294-.689.657-.689.361 0 .655.308.655.689v1.377h3.938V1.648c0-.381.293-.689.656-.689.362 0 .656.308.656.689v1.377zm3.159 18.459a.448.448 0 0 0 .123-.32h.001V4.862a.449.449 0 0 0-.437-.459h-2.845v1.378c0 .381-.294.689-.656.689-.363 0-.656-.308-.656-.689V4.403h-3.938v1.378c0 .381-.294.689-.655.689-.363 0-.657-.308-.657-.689V4.403H5.907v1.378c0 .381-.294.689-.656.689-.363 0-.657-.308-.657-.689V4.403H1.75a.45.45 0 0 0-.438.459v16.302a.45.45 0 0 0 .438.459h17.501a.448.448 0 0 0 .314-.139z"
      fill="#A9A9A9"></path>
    <path fill-rule="evenodd" clip-rule="evenodd" d="M4.594 9.225h2.625v2.066H4.594V9.225zm0 3.443h2.625v2.067H4.594v-2.067zm2.625 3.444H4.594v2.066h2.625v-2.066zm1.969 0h2.625v2.066H9.188v-2.066zm2.625-3.444H9.188v2.067h2.625v-2.067zM9.188 9.225h2.625v2.066H9.188V9.225zm7.218 6.887h-2.625v2.066h2.625v-2.066zm-2.625-3.444h2.625v2.067h-2.625v-2.067zm2.625-3.443h-2.625v2.066h2.625V9.225z"
      fill="#A9A9A9"></path>
  </symbol>
  <symbol viewBox="0 0 23 23" xmlns="http://www.w3.org/2000/svg" id="checkbox-off">
    <path fill-rule="evenodd" clip-rule="evenodd" d="M3 0h17c1.65 0 3 1.35 3 3v17c0 1.65-1.35 3-3 3H3c-1.65 0-3-1.35-3-3V3c0-1.65 1.35-3 3-3zm18 3c0-.542-.458-1-1-1H3c-.542 0-1 .458-1 1v17c0 .542.458 1 1 1h17c.542 0 1-.458 1-1V3z" fill="#fff"></path>
  </symbol>
  <symbol viewBox="0 0 27 23" xmlns="http://www.w3.org/2000/svg" id="checkbox-on">
    <path d="M7.285 7.486l-2.829 2.829 7.783 7.783L26.171 4.166l-2.828-2.829L12.24 12.439 7.285 7.486z" fill="#fff"></path>
    <path d="M21 20c0 .542-.458 1-1 1H3c-.542 0-1-.458-1-1V3c0-.542.458-1 1-1h16.908L21.493.415A2.96 2.96 0 0 0 20 0H3C1.35 0 0 1.35 0 3v17c0 1.65 1.35 3 3 3h17c1.65 0 3-1.35 3-3v-9.829l-2 2V20z" fill="#fff"></path>
  </symbol>
  <symbol viewBox="0 0 114 40" xmlns="http://www.w3.org/2000/svg" id="copyright_logo">
    <path fill-rule="evenodd" clip-rule="evenodd" d="M15.52.057h-.17L0 1.72v28.775l15.35 9.344 15.352-9.344V1.72L15.52.057zm61.498 1.565h-1.93v13.11h1.93V1.621zm-36.156.01v5.136a3.976 3.976 0 0 1 2.849-1.23 3.387 3.387 0 0 1 2.614 1.007 3.55 3.55 0 0 1 1.015 2.662v5.556h-1.973V9.466a1.984 1.984 0 0 0-.41-1.44 1.899 1.899 0 0 0-1.289-.718h-.316a3.081 3.081 0 0 0-2.448 1.5v5.955H38.9V1.633h1.963zm36.156 28.852h-1.74v-1.425a4.061 4.061 0 0 1-3.366 1.662c-2.437-.168-4.33-2.239-4.33-4.736 0-2.498 1.893-4.569 4.33-4.737a3.98 3.98 0 0 1 3.165 1.402v-5.33h1.941v13.164zm-29.952-1.425c.197-.008.392-.044.58-.107v1.435a3.38 3.38 0 0 1-1.245.226 1.758 1.758 0 0 1-1.762-1.079 5.035 5.035 0 0 1-3.313 1.166c-1.593 0-3.07-.896-3.07-2.752 0-2.298 2.11-3.01 3.914-3.01.77.013 1.537.103 2.29.27v-.324c0-1.079-.802-1.91-2.31-1.91a7.682 7.682 0 0 0-3.166.69V21.83a10.56 10.56 0 0 1 3.365-.593c2.49 0 4.02 1.209 4.02 3.938v3.237a.592.592 0 0 0 .13.429c.096.12.236.194.387.208h.18v.01zM40.27 27.84c.027.389.205.75.495 1.004.289.253.666.378 1.046.345h.116a3.537 3.537 0 0 0 2.542-1.079v-1.532a10.039 10.039 0 0 0-1.91-.227c-1.055 0-2.278.356-2.278 1.49h-.01zm15.752-5.902a5.183 5.183 0 0 0-2.712-.69h-.369a4.514 4.514 0 0 0-3.18 1.471 4.722 4.722 0 0 0-1.23 3.341v.442c.164 2.498 2.273 4.39 4.716 4.23 1.004.024 2-.187 2.912-.615v-1.845a5.185 5.185 0 0 1-2.564.69 2.885 2.885 0 0 1-2.657-1.426 3.024 3.024 0 0 1 0-3.07 2.884 2.884 0 0 1 2.657-1.427c.865-.003 1.71.26 2.427.755v-1.856zM66.15 29.06a2.08 2.08 0 0 0 .58-.108v1.435c-.397.153-.82.23-1.244.226a1.758 1.758 0 0 1-1.762-1.079 5.035 5.035 0 0 1-3.313 1.166c-1.593 0-3.07-.896-3.07-2.752 0-2.298 2.11-3.01 3.914-3.01.77.013 1.537.103 2.29.27v-.324c0-1.079-.802-1.91-2.311-1.91a7.682 7.682 0 0 0-3.165.69V21.83c1.084-.379 2.22-.58 3.365-.593 2.49 0 4.02 1.209 4.02 3.938v3.237a.592.592 0 0 0 .129.429c.097.12.237.194.388.208h.18v.01zm-6.296-.212a1.468 1.468 0 0 1-.498-1.008h.021c0-1.133 1.16-1.489 2.279-1.489.642.015 1.281.09 1.91.227v1.532a3.537 3.537 0 0 1-2.543 1.079h-.116a1.404 1.404 0 0 1-1.053-.34zm9.472-2.918c0-1.644 1.304-2.977 2.912-2.977l.021.054c1.214 0 2.314.731 2.806 1.866v2.158a3.015 3.015 0 0 1-2.827 1.877c-1.608 0-2.912-1.333-2.912-2.978zm14.022-4.682c3.492 0 4.705 2.892 4.135 5.492h-6.562c.222 1.618 1.762 2.276 3.366 2.276a6.326 6.326 0 0 0 2.785-.636v1.726a7.39 7.39 0 0 1-3.165.615c-2.67 0-5.012-1.532-5.012-4.769a4.572 4.572 0 0 1 1.145-3.268 4.37 4.37 0 0 1 3.076-1.469h.232v.033zm-2.48 3.927c.101-1.351 1.253-2.365 2.575-2.265h.042c.62-.057 1.234.17 1.675.62.442.449.666 1.075.614 1.71H80.87v-.065zm8.62 5.287v-8.966h1.74v1.079a3.983 3.983 0 0 1 2.934-1.37 3.001 3.001 0 0 1 2.785 1.51 4.311 4.311 0 0 1 3.07-1.435 3.192 3.192 0 0 1 2.489 1.01c.647.69.971 1.631.887 2.583v5.61h-2.004v-5.556a1.74 1.74 0 0 0-.366-1.262 1.665 1.665 0 0 0-1.132-.626h-.275a2.936 2.936 0 0 0-2.184 1.208v6.237H95.43v-5.557a1.742 1.742 0 0 0-.38-1.266 1.666 1.666 0 0 0-1.15-.611h-.21a3.153 3.153 0 0 0-2.333 1.392v6.074h-1.825l-.042-.054zm24.488-8.988h-2.005l-2.648 6.798-3.018-6.787h-2.11l4.221 9.063-.18.454c-.517 1.36-1.234 2.05-2.184 2.05a2.96 2.96 0 0 1-.897-.13v1.694c.38.096.77.147 1.161.151 1.329 0 2.585-.744 3.534-3.086l4.126-10.207zM52.689 5.787V2.55l-1.962.464v2.719h-1.583V7.49h1.646v4.5c-.067.826.234 1.64.82 2.213a2.653 2.653 0 0 0 2.197.743 7.014 7.014 0 0 0 2.332-.378v-1.726a4.647 4.647 0 0 1-1.783.356c-1.14 0-1.667-.389-1.667-1.575v-4.11h3.165V5.787H52.69zm5.697 8.966V5.754h1.752v1.08a3.983 3.983 0 0 1 2.922-1.382 2.998 2.998 0 0 1 2.743 1.435c.793-.882 1.9-1.4 3.07-1.435.94-.037 1.85.347 2.491 1.052.64.704.949 1.66.843 2.617v5.62h-2.004V9.186a1.743 1.743 0 0 0-.366-1.262 1.668 1.668 0 0 0-1.132-.626h-.243a2.937 2.937 0 0 0-2.184 1.209v6.236h-2.005V9.185a1.742 1.742 0 0 0-.365-1.262 1.667 1.667 0 0 0-1.133-.626h-.242A3.153 3.153 0 0 0 60.2 8.69v6.074h-1.815v-.01zm-29.689 14.55l.01-.006-.01.021v-.015zm0-11.983v11.983l-13.346 8.13-13.346-8.115V17.515l13.283 8.092v1.424l-9.105-5.503v1.414l9.157 5.621v1.5l-9.147-5.567v1.456l9.158 5.621 9.232-5.653v-6.107l4.114-2.492zm.01-1.542l-3.67 2.158-1.689 1.079-8.04-4.931v1.413l6.848 4.23-.148.097-1.055.582-5.665-3.452v1.445l4.473 2.72-1.055.722-3.376-2.05v1.414l2.215 1.338-2.247 1.36-13.188-8.04 13.2-8.134 13.399 8.049zm-13.42-9.506l13.42 8.081V3.563L15.362 2.13 2.015 3.564v10.79l13.273-8.082z"
      ></path>
  </symbol>
  <symbol viewBox="0 0 12 22" xmlns="http://www.w3.org/2000/svg" id="fb">
    <path d="M12 4V0H8a4 4 0 0 0-4 4v4H0v4h4v10h4V12h4V8H8V4h4z"></path>
  </symbol>
  <symbol viewBox="0 0 75 70" xmlns="http://www.w3.org/2000/svg" id="food">
    <path fill-rule="evenodd" clip-rule="evenodd" d="M8.978 31.544h60.877c.041-.619.069-1.241.069-1.87 0-.393-.016-.78-.032-1.17v-.003C69.227 12.657 55.186 0 37.952 0 20.719 0 6.677 12.657 6.013 28.501c-.017.39-.032.78-.032 1.173 0 .629.028 1.251.07 1.87h2.927zm12.979 10.921l-5.323-4.059-5.326 4.059-6.188-4.714 1.721-2.457 4.467 3.401 5.327-4.057 5.323 4.057 5.325-4.057 5.328 4.057 5.328-4.057 5.328 4.057 5.329-4.057 5.327 4.057 5.33-4.056 5.336 4.057 4.474-3.403 1.72 2.459-6.194 4.712-5.336-4.059-5.33 4.06-5.327-4.059-5.329 4.059-5.328-4.059-5.328 4.059-5.328-4.059-5.326 4.059zM5.051 46.71h65.803c2.274 0 4.134 1.94 4.134 4.313v3.504c0 2.372-1.861 4.313-4.135 4.313h-.93v1.053c0 5.536-4.342 10.065-9.648 10.065H15.629c-5.307 0-9.648-4.529-9.648-10.065V58.84h-.93c-2.274 0-4.135-1.941-4.135-4.313v-3.504c0-2.373 1.861-4.313 4.135-4.313zm55.225 20.205c3.711 0 6.73-3.15 6.73-7.021h-.001v-1.053H8.898v1.053c0 3.871 3.02 7.021 6.731 7.021h44.647zm11.795-12.388c0 .688-.558 1.271-1.218 1.271H5.051c-.66 0-1.217-.582-1.217-1.271v-3.504c0-.688.558-1.271 1.217-1.271h65.802c.66 0 1.218.582 1.218 1.271v3.504zm-5.098-26.026c-.671-14.142-13.43-25.458-29.021-25.458-15.591 0-28.348 11.316-29.021 25.458h58.042z"
      fill="#81B3D2"></path>
    <path d="M37.952 17.29c1.074 0 1.945-.909 1.945-2.03 0-1.121-.87-2.03-1.945-2.03-1.074 0-1.945.909-1.945 2.03 0 1.121.87 2.03 1.945 2.03zm-7.78-5.03c1.075 0 1.946-.909 1.946-2.03 0-1.121-.871-2.03-1.946-2.03s-1.946.909-1.946 2.03c0 1.121.871 2.03 1.946 2.03zm15.56 0c1.075 0 1.946-.909 1.946-2.03 0-1.121-.871-2.03-1.946-2.03s-1.946.909-1.946 2.03c0 1.121.871 2.03 1.946 2.03z"
      fill="#81B3D2"></path>
  </symbol>
  <symbol viewBox="0 0 75 72" xmlns="http://www.w3.org/2000/svg" id="house">
    <path fill-rule="evenodd" clip-rule="evenodd" d="M45.656 65.033h-16V41.21h16v23.823zm-2.938-20.899H32.593V62.11h10.125V44.134z" fill="#81B3D2"></path>
    <path fill-rule="evenodd" clip-rule="evenodd" d="M72.771 39.253l2.076-2.068-9.908-9.865V0H51.127v13.567L37.5 0 .152 37.185l2.077 2.068 7.832-7.795v37.618H6.124V72h63.875v-2.924H64.94V31.458l7.831 7.795zM62.002 69.076H12.999V28.534L37.5 4.149l24.502 24.385v40.542zm-7.938-52.584l7.938 7.902V2.924h-7.938v13.568z"
      fill="#81B3D2"></path>
    <path fill-rule="evenodd" clip-rule="evenodd" d="M37.656 34.793c-4.28 0-7.75-3.452-7.75-7.713 0-4.26 3.469-7.713 7.75-7.713 4.279 0 7.75 3.454 7.75 7.713 0 4.26-3.471 7.713-7.75 7.713zm4.969-7.713c0-2.731-2.225-4.945-4.969-4.945-2.745 0-4.97 2.214-4.97 4.945 0 2.732 2.224 4.948 4.97 4.948 2.744 0 4.969-2.216 4.969-4.948zM17.061 41.21h3v3.919h-3v-3.92zm8.938 0h-3v3.919h3v-3.92zm-8.938 5.972h3V51.1h-3v-3.92zm8.938 0h-3V51.1h3v-3.92zm22.999-5.972h3v3.919h-3v-3.92zm8.938 0h-3v3.919h3v-3.92zm-8.938 5.972h3V51.1h-3v-3.92zm8.938 0h-3V51.1h3v-3.92z"
      fill="#81B3D2"></path>
  </symbol>
  <symbol viewBox="0 0 11 10" xmlns="http://www.w3.org/2000/svg" id="icon-down-dir">
    <path d="M5.5 10L0 0h11"></path>
  </symbol>
  <symbol viewBox="0 0 138 70" xmlns="http://www.w3.org/2000/svg" id="logo">
    <path d="M138 0H0l59.51 65.68c5.22 5.761 13.76 5.761 18.98 0L138 0z" fill="#81B3D3"></path>
    <path d="M36.687.457l32.148 37.879 32.02-37.65L36.687.457z" fill="#23A9E1"></path>
    <path fill-rule="evenodd" clip-rule="evenodd" d="M78.42 14.719H61.1c-.28-.127-.662-.27-1.088-.43-2.198-.822-5.6-2.096-2.665-4.037 1.47-.933 2.525-.784 3.522-.642 1.09.155 2.11.3 3.526-.988 2.58-2.34 6.275 1.287 7.54 2.53.261.256.419.41.442.391 1.25-1.04 3.254.761 4.734 2.092.52.467.974.876 1.309 1.084zm9.41-3.478l-9.86.054c3.896-4.5 5.647-4.018 9.86-.054z"
      fill="#fff"></path>
    <path fill-rule="evenodd" clip-rule="evenodd" d="M36 .001h33.055L102 0v15.04L69.056 54.245l-.22.275L36 14.583V.001zm4.011 1.152V3.06l-1.604-1.906 1.604-.001zm57.611.001v2.434l2.08-2.434h-2.08zM48.467 13.081l-.09-.083.82.973-.001.001 19.638 23.33-19.638-23.33c2.655-4.543 6.457-5.223 10.547-.308.654.818 1.05 1.56 1.369 2.157.45.844.744 1.393 1.386 1.439 1.139.081 1.699-.674 2.256-1.426.442-.596.882-1.19 1.609-1.361 1.421-.334 2.076.025 2.719.377.204.112.406.223.632.311.282.11.546.18.79.245.627.166 1.125.297 1.473.995.116.232.213.464.308.69.42 1.006.795 1.904 2.594 2.203 2.548.424 4.703-.528 6.944-1.52 1.607-.71 3.26-1.44 5.133-1.697l2.515-2.945c-.105-.11-2.467-2.54-6.132-4.95-3.429-2.255-8.728-4.949-14.506-4.977-5.791-.032-11.016 2.653-14.383 4.912-3.543 2.377-5.816 4.786-5.974 4.955l-.009.009zM97.114 1.153h-3.227V7.96l3.227-3.777v-3.03zM89.832 12.61V1.154h3.546v7.404l-3.5 4.098a.998.998 0 0 0-.046-.046zm-.508-.495V2.221l-3.557 6.908a41.04 41.04 0 0 1 3.557 2.986zM85.159 1.863v6.819c-.463-.334-.95-.673-1.465-1.012-.664-.438-1.4-.892-2.194-1.34l3.659-4.467zM80.847 5.97V1.73l-3.12 2.766c1.065.436 2.107.928 3.12 1.474zm.508-4.816h3.727l-3.727 4.55v-4.55zm7.945 0h-3.633l-.001 7.06 3.634-7.06zm-12.43 0h3.86L77.2 4.282a6.68 6.68 0 0 0-.198-.073 15.53 15.53 0 0 1-.133-.049V1.154h.001zm-.509 2.82V1.571l-3.1 1.516c1.05.231 2.086.527 3.1.887zm-4.203-2.361v1.26a21.46 21.46 0 0 0-2.179-.252l2.179-1.008zM67.64 2.616l-2.248-1.042v1.295c.736-.123 1.486-.21 2.248-.253zm-6.368-1.045l3.065 1.498c-1.06.229-2.083.528-3.066.875l.001-2.373zm.306-.417l3.304 1.617.001-1.617h-3.305zm6.87 1.275l-2.754-1.275h2.754v1.275zm3.49-1.275h-2.881v1.334l2.881-1.334zm.878 0h3.24l-3.24 1.584V1.154zm-15.921.001l3.51 3.11.359-.135V1.155h-3.869zm-.108.583l3.093 2.741c-1.057.44-2.09.937-3.093 1.489v-4.23zm-.672 4.608l-3.64-4.48v6.89a35.89 35.89 0 0 1 3.64-2.41zM48.31 2.224l3.586 6.974a37.772 37.772 0 0 0-3.586 3.151V2.224zm.022-1.07l3.634 7.07v-7.07h-3.634zm7.946 4.585l-3.726-4.585h3.726v4.585zM40.52 3.664l3.227 3.833V1.154H40.52v2.51zm3.735-2.51H47.8v11.16l-3.546-4.212.001-6.948z"
      fill="#491213"></path>
    <path d="M66.227 46.026l2.61-4.22 2.598 4.22-2.598 4.23-2.61-4.23z" fill="#23A9E1"></path>
    <path fill-rule="evenodd" clip-rule="evenodd" d="M52.88 11.718c-1.783.554-2.881 3.012-.257 3.121h.001c-.108-1.668.366-2.374.512-.348.433-.02.882-.032 1.339-.044 1.642-.044 3.38-.09 4.795-.524-1.14-1.091-4.695-2.733-6.39-2.205zm5.913 11.267c-5.596-.046-1.813-8.648.091-8.128 2.19.696 1.944 8.194-.091 8.128zm2.54-2.855c-.11 1.972.878 1.669 1.423.045v-.001c.003.359-.036.72-.075 1.073-.102.936-.197 1.808.534 2.397 1.324 1.069 3.865-.397 4.696-1.492-1.597-.62.348-4.387 1.546-4.961-1.232 2.581-2.652 6.426.568 6.426-1.632 0 1.302-6.746 1.318-6.692-.186-.617-.649-.684-1.2-.763-.41-.059-.868-.125-1.3-.427-1.582-1.107-2.409-.154-3.212.772-.35.404-.696.802-1.098 1.023-.48.263-.95.397-1.377.518-.985.28-1.735.494-1.823 2.082zm12.885 10.426c-3.433-2.02-2.564-3.523.23-4.925.36-.18.832-.478 1.358-.81 1.61-1.014 3.736-2.353 4.775-1.689l-6.363 7.424zm-3.544 2.448c-1.707-.105-3.494-.215-5.052.124 1.207.302 4.151 1.165 1.41 1.894.983 1.407 2.578 1.317 3.624.082a3.504 3.504 0 0 1-.625-.411 4.584 4.584 0 0 0-.382-.275c1.085-.196 2.1-.822 2.235-1.345-.396-.018-.8-.043-1.21-.069zm-.301-1.505c.869-.84 1.813-.796 2.746 0h-.001c-.474 1.382-9.059.894-10.124-1.72.524.08 1.207.087 1.95.096 2.058.024 4.573.053 5.429 1.624zm-4.028-2.151c-.45-.14-1.209-.23-1.978-.32-1.901-.224-3.868-.456-1.41-1.474 1.065-.441 6.593.063 3.388 1.794zm1.912-3.03c-.477-1.077.365-2.36 1.74-1.428 1.199.813-.552 2.017-1.74 1.428zm-2.836.091c-2.265.679-5.273-.784-1.63-1.52 2.261-.456 4.666.506 1.63 1.52z"
      fill="#DC6243"></path>
    <path d="M71.774 25.832c-2.908-2.987 4.342-2.712 5.51-3.763.85.284 6.99-5.377 8.485-5.025-1.074 1.26-3.388 5.282-5.047 5.282-1.275 0-2.565-.19-3.552.718-1.444 1.33-3.837 2.006-5.396 2.788z" fill="#F49774"></path>
    <path d="M72.727 22.18c-1.592.856-3.098-2.536-.349-2.206 1.826.22 3.676-.154 5.42.147-1.251 1.487-3.056 2.306-5.071 2.059z" fill="#F4B1A4"></path>
    <path fill-rule="evenodd" clip-rule="evenodd" d="M39.265 14.483c.361 1.219 1.584 1.666 2.731 1.326.036.04.059.103.08.16l.03.077c-.1.038-.284.118-.504.213-.612.264-1.504.648-1.629.602-.217-.433-.558-.752-.902-1.074-.239-.224-.48-.45-.679-.714-.566-.748-.897-1.651-.808-2.597.142-1.745 1.898-3.669 3.762-3.405.92.133 1.688.787 2.26 1.483.163.19.304.388.443.584.297.416.585.821 1.05 1.1-.558.712-1.116 1.422-1.676 2.133-.33-.146-.23-.374-.12-.623.03-.07.062-.141.085-.213.163-.517.285-1.105.061-1.625-.51-1.174-1.905-1.214-2.84-.544-.946.678-1.697 1.926-1.344 3.117zm8.425 1.921c.117-.025.206.017.284.054.115.054.21.099.338-.09l-1.59-1.894c-.241-.287-.546-.595-.459.012.058.409-3.969 3.677-4.215 3.778-.135.056-.245.012-.346-.028-.131-.052-.245-.097-.374.091l.602.716.002.002.001.002.001.001.818.972c.051.061.102.124.152.187.107.133.214.267.333.386.189.189.153-.268.145-.366v-.014c-.053-.296.259-.553.478-.733l.077-.064c1.004-.884 3.505-2.979 3.753-3.012zm3.423 4.531c.333.401.578.834.523 1.374-.013.128-.088.285-.163.445-.146.309-.297.626-.012.753l1.455-1.84c-.39-.098-3.482-3.796-3.532-4.201l-2.051 1.126c.07.283.413.194.743.108.17-.044.337-.087.46-.078.538.038.926.363 1.268.747l-.356.3-.004.003h-.001c-1.258 1.058-3.517 2.959-3.777 3.002-.048.008-.14-.032-.244-.076-.21-.09-.465-.198-.47.039-.003.125.299.424.5.623.072.071.131.13.159.163l1.447 1.722c.22-.1.177-.233.127-.388-.04-.127-.087-.27.006-.419.12-.193 2.055-1.826 3.218-2.807v-.001c.302-.254.552-.465.704-.595zm13.849 15.58a23.814 23.814 0 0 0-.423-.538l-.213-.253c-.007-.01-.185.145-.16.124-.053.045-.036.132-.017.23.022.109.046.232-.017.33-.515.806-3.738 3.236-3.905 3.352-.174.12-.356.1-.522.083-.177-.02-.336-.037-.445.123.14.165.355.436.595.735.564.706 1.256 1.572 1.365 1.59.217.035.178-.237.148-.445a.617.617 0 0 1-.012-.204c.075-.226 1.52-1.43 2.186-1.985l.118-.099c.186-.156.38.154.513.368l.064.1c.212.315.307.65.193 1.019a1.187 1.187 0 0 1-.124.237c-.122.198-.25.409-.038.525.17-.2.474-.553.778-.907l.006-.008.003-.004.005-.005.904-1.056c.12-.14-.136-.086-.254-.061-.042.009-.066.014-.05.005-.24.124-.466.153-.69-.018-.063-.047-.707-.702-.643-.757.066-.055.135-.119.206-.185.236-.216.501-.46.778-.529.56-.138 1.027.984 1.11 1.382.078.375.067.77-.05 1.136-.02.063-.05.123-.078.18-.085.169-.156.31.09.424l1.383-1.896a.464.464 0 0 1-.258-.063c-.584-.39-1.85-2.029-2.546-2.93zm-8.658-5.198a3.35 3.35 0 0 1 1.977-.793c1.158-.066 2.332.464 3.09 1.474 1.112 1.484.93 3.561-.5 4.766-1.685 1.201-3.767 1.008-5.059-.694-1.124-1.478-.938-3.55.492-4.753zm3.167.593c.949-.108 1.503.799 1.099 1.768-.42.98-1.43 1.989-2.424 2.38-1.18.465-2.011-.537-1.531-1.657.422-.984 1.43-1.983 2.426-2.38.15-.059.294-.095.43-.11v-.001zm-2.497-4.54a1.12 1.12 0 0 0-.286-.09v-.001c-.696-.083-1.479.062-2.218.2-.282.052-.559.103-.821.14-.647.091-2.172 1.576-2.27 1.856-.01.039.01.127.035.227.055.227.125.52-.109.479-.08-.015-.27-.273-.396-.445-.044-.06-.08-.11-.102-.135l-1.617-1.92c.143-.203.264-.134.404-.054.11.063.233.133.388.079.266-.093 1.178-.87 1.61-1.238l.002-.003.143-.121c.554-.466 1.04-2.173 1.2-2.731.025-.09.042-.149.05-.17.061-.17.082-1.145.058-1.125.21-.174.355.04.501.255.044.066.089.13.135.186l1.78 2.112c-.132.19-.254.134-.389.073-.13-.059-.27-.123-.443.019-.159.13-.54 1.23-.713 1.727l-.039.113.143-.025c.532-.09 1.776-.302 1.919-.553.067-.118.028-.22-.007-.31-.047-.12-.086-.221.133-.32l1.447 1.712c-.152.225-.337.148-.538.064zm23.953 6.679c.124.421.194.865.14 1.305-.07.566-.636 1.898-1.411 1.519-.534-.262-1.022-.71-1.488-1.14-.197-.18-.39-.358-.582-.517.52-.608.978-1.135 1.853-.84.24.08.446-.024.194-.17l-.29-.177c-.581-.358-1.75-1.079-1.827-.992-.08.092-.016.217.058.363.09.175.194.38.085.594-.115.225-.29.426-.46.621l-.145.169a5.464 5.464 0 0 0-.22-.175c-.447-.347-.946-.733-.465-1.289.352-.428.811-.76 1.361-.87.13-.026.316-.003.507.021.354.044.726.091.795-.167a666.425 666.425 0 0 0-2.115-1.016c.092.418-1.365 2.059-2.206 3.006-.206.232-.375.422-.475.542-.02.023-.058.061-.104.107-.131.13-.324.32-.327.41-.005.252.33.098.41.061l.017-.007c.315-.116 4.424 3.317 4.526 3.552.03.086 0 .174-.027.254-.031.089-.058.167.007.221l.003.003c.021.02.147.135.162.117.042-.05.153-.194.31-.397.783-1.01 2.719-3.51 3.179-3.639-.517-.788-1.03-1.578-1.537-2.372-.287.126-.151.408-.03.663.041.086.08.168.102.24zm-7.716 5.192c.721-.446 2.562-1.585 3.716-.84 1.132.942.885 2.48.132 3.58-.361.525-.817.964-1.294 1.383l-.031.026c-.35.294-.609.51-.675.989l-2.26-1.647c.113-.295.338-.169.56-.044.083.046.164.092.239.116.391.129.816.165 1.216.059.684-.182 1.377-.823 1.56-1.519.228-.865-.621-1.127-1.267-.824a7.293 7.293 0 0 0-.9.534c-.117.077-.233.153-.349.226-.653.407-1.421.715-2.158.331-.648-.336-1.089-.99-1.089-1.726 0-.797.453-1.495.987-2.05a5.81 5.81 0 0 1 .429-.385c.403-.34.836-.705.919-1.2.555.376 1.11.751 1.667 1.126.092.063.076.084.025.15-.015.02-.034.043-.053.074-.047.074-.37.038-.634.008a2.516 2.516 0 0 0-.312-.025c-.596.036-1.196.297-1.5.837-.35.622.137 1.294.812.975a3.78 3.78 0 0 0 .26-.154zm21.333-28.905a.223.223 0 0 0-.088.072l-.79.95-.814.982a2.191 2.191 0 0 1-.083.094c-.131.143-.212.23.058.373.543-.272 3.518 4.768 3.252 5.492-.47.244-4.49-3.283-4.598-3.516a.524.524 0 0 1 .013-.17c.031-.197.076-.478-.149-.443-.11.017-.323.329-.464.536-.05.072-.09.132-.114.161l-.577.695c.13.19.227.146.345.09a.465.465 0 0 1 .278-.062c.228.046 1.044.733 1.377 1.014l.079.066a78.78 78.78 0 0 0-.666.03c-.529.024-1.13.052-1.239.044-.336.042-.377-.106-.424-.272-.034-.124-.072-.259-.236-.333l-1.478 1.795-.86 1.043-.01.012c-.008.01-.012.014-.012.017 0 .004.005.007.015.014a.44.44 0 0 1 .038.029l.071.06c.04.035.056.05.073.05.011-.001.023-.008.042-.02a.842.842 0 0 1 .184-.086c.328-.115 4.256 3.2 4.398 3.369.112.133.1.277.09.408-.011.157-.022.298.178.385l1.168-1.418a.624.624 0 0 1 .033-.037c.035-.036.041-.043-.02-.093-.153-.126-.231-.07-.328-.002-.079.055-.17.119-.322.102-.3-.05-2.218-1.65-3.36-2.602v-.001l-.005-.004h-.002l-.006-.006-.455-.379 5.322-.197c.195-.007.74.581.695.79a.709.709 0 0 1-.08.193c-.07.126-.118.215.114.322.123-.148.25-.296.376-.445.192-.226.385-.451.569-.68l.148-.184a.477.477 0 0 0 .135-.172l.11-.137.095-.108.003-.003c.344-.39 1.06-1.201.964-1.285-.14-.121-.246-.064-.36-.002-.131.07-.272.147-.484-.033-.206-.147-.693-.986-.886-1.319l-.049-.083c-.153-.26.28-.52.54-.675l.085-.052c.504-.313 2.107-.767 2.26.227a.442.442 0 0 1-.05.22c-.039.094-.074.18-.005.237l.023.023c.043.044.118.123.153.082l2.142-2.576a1.124 1.124 0 0 1-.063-.06.486.486 0 0 0-.147-.116c-.474.473-5.466-1.52-5.83-1.795-.076-.03-.123-.175-.169-.316-.053-.167-.106-.329-.203-.295zm2.062 3.513a422.87 422.87 0 0 0-2.287-.96l1.016 1.748c.189-.187.397-.353.621-.495h.002c.201-.127.418-.229.648-.293zm-8.875 6.793c-1.107-.076-2.23.41-3.023 1.317-1.235 1.5-1.112 3.678.393 4.945 1.518 1.25 3.68.932 4.916-.55 1.232-1.496 1.147-3.68-.385-4.934a3.302 3.302 0 0 0-1.9-.778h-.001zm.293 2.262c-.432-.289-1.12-.665-1.742-.703-.373-.023-.723.077-.98.391-.815.996.462 2.126 1.207 2.664.744.537 2.124 1.314 2.924.474a.153.153 0 0 0 .018-.018c.133-.167.098-.128.05-.07.737-1.051-.697-2.217-1.477-2.738zm-4.869 3.577c-1.214-.067-2.403.496-3.299 1.576-.524.629-1.046 1.26-1.568 1.89l-.354.426c.124.18.258.142.409.1.127-.036.266-.075.418.013.283.163 4.053 3.312 4.115 3.485.046.13.02.215-.002.286-.028.092-.05.163.096.282.111.093 2.944-3.405 3.203-4.02.448-1.139.091-2.387-.82-3.175.073.06.177.145-.042-.037-.69-.518-1.427-.787-2.156-.827v.001zm-.787 1.617a1.228 1.228 0 0 0-.266-.037v-.001c-.661-.025-1.582.358-2.057.879-.159.175 3.822 3.399 4.02 3.209.183-.175.257-.239.297-.274a.788.788 0 0 0 .135-.148c1.255-1.513-.707-3.265-2.129-3.628z"
      fill="#fff"></path>
  </symbol>
  <symbol viewBox="0 0 11 10" xmlns="http://www.w3.org/2000/svg" id="icon-up-dir">
    <path d="M5.5 0L0 10h11L5.5 0z"></path>
  </symbol>
  <symbol viewBox="0 0 12 3" xmlns="http://www.w3.org/2000/svg" id="minus">
    <path fill="#A9A9A9" d="M0 0h12v3H0z"></path>
  </symbol>
  <symbol viewBox="0 0 64 77" xmlns="http://www.w3.org/2000/svg" id="souvenir">
    <path fill-rule="evenodd" clip-rule="evenodd" d="M61.097 23.501H36.312C50.125 16.602 51.229 12.25 50.72 9.816c-1.162-3.963-5.692-7.023-10.002-5.407-5.569 2.089-7.137 10.388-8.644 16.387-1.924-6.07-3.784-13.814-8.136-17.737-1.261-1.138-3.095-2.264-5.763-2.028-4.026.356-9.802 5.382-7.458 10.981 2.251 5.378 9.687 8.777 14.578 11.489H2.879A2.882 2.882 0 0 0 0 26.37v11.322a2.882 2.882 0 0 0 2.879 2.869h.274V77h57.841V40.561h.103a2.882 2.882 0 0 0 2.88-2.869V26.37a2.882 2.882 0 0 0-2.88-2.869zM42.413 6.944c2.103-.31 4.982 1.299 5.255 3.209.393 2.756-3.4 5.255-5.086 6.421-2.523 1.744-4.928 2.643-7.287 4.055.884-3.69 2.549-13.011 7.118-13.685zm-22.882 9.968c-2.225-1.485-6.544-4.431-6.44-7.771.112-3.595 5.743-6.57 8.814-3.886 3.856 3.371 5.713 11.105 7.119 16.557-3.249-1.539-6.328-2.788-9.493-4.9zm5.972 57.114H6.136V40.561h19.368v33.465h-.001zm0-36.502H3.046V26.538h22.457v10.986zm10.157 0v36.503h-7.174V26.538h7.174v10.986zm22.351 36.502H38.644V40.561h19.367v33.465zm2.92-36.502H38.644V26.538h22.287v10.986z"
      fill="#81B3D2"></path>
  </symbol>
  <symbol viewBox="0 0 11 11" xmlns="http://www.w3.org/2000/svg" id="plus">
    <path fill-rule="evenodd" clip-rule="evenodd" d="M4.23 6.77V11h2.54V6.77H11V4.23H6.77V0H4.23v4.23H0v2.54h4.23z" fill="#A9A9A9"></path>
  </symbol>
  <symbol viewBox="0 0 19 17" xmlns="http://www.w3.org/2000/svg" id="star">
    <path d="M9.002 0l2.126 6.494h6.877l-5.564 4.012L14.566 17l-5.564-4.013L3.438 17l2.126-6.494L0 6.494h6.878L9.002 0z" fill="#81B3D2"></path>
  </symbol>
  <symbol viewBox="0 0 17 16" xmlns="http://www.w3.org/2000/svg" id="twitter">
    <path d="M10.95 1.144c1.685-.496 2.984.27 3.577 1.18.673-.232 1.331-.482 2.011-.709a2.345 2.345 0 0 1-.857 1.768c.685.17 1.304-.49 1.304-.49-.169 1-1.006 1.787-1.563 2.023-.231 6.75-3.175 11.217-10.077 11.082h-.446c-.41 0-4.164-.46-4.898-1.887 2.271.196 3.893-.422 4.693-1.177-.96-.3-2.679-.477-2.979-2.95.349.106.564.228 1.19.12C1.705 9.246.374 8.53.448 6.33c.285.328 1.067.536 1.34.472-.703-.24-1.97-3.36-.894-4.952 1.818 1.854 3.735 3.606 7.152 3.773.208-2.293 1.137-3.83 2.904-4.479z"></path>
  </symbol>
  <symbol viewBox="0 0 458 214" xmlns="http://www.w3.org/2000/svg" id="welcome_text-3">
    <path fill-rule="evenodd" clip-rule="evenodd" d="M9.673 52.115c.077.078.116.155.116.233.078 0 .155.038.232.116 2.09 2.322 4.452 4.49 7.084 6.503 2.632 1.935 5.652 2.98 9.058 3.135.078 0 .155.04.232.117h.349c.077 0 .155.038.232.116h1.277c.388-.078.736-.155 1.046-.233a9.693 9.693 0 0 0 3.484-1.393c1.16-.697 2.051-1.549 2.67-2.555l.233-.465.232-.464c.155-.542.271-1.045.349-1.51.077-.464.116-.89.116-1.277 0-2.09-.93-3.832-2.787-5.226a19.946 19.946 0 0 0-5.807-3.368 16.801 16.801 0 0 0-2.439-.696 31.404 31.404 0 0 0-2.206-.581h-.232c-.078-.077-.155-.116-.232-.116a37.998 37.998 0 0 1-10.684-4.413c-3.33-2.09-5.613-5.071-6.852-8.942a98.21 98.21 0 0 1-.697-2.439 27.875 27.875 0 0 1-.348-2.67 3.413 3.413 0 0 1-.116-.814v-2.787c.077-.619.193-1.238.348-1.858.24-1.581.63-3.136 1.161-4.645.542-1.548 1.239-2.942 2.09-4.18 2.478-4.104 5.652-7.046 9.523-8.826C21.054 1.096 25.157.206 29.415.206c1.007 0 2.013.077 3.02.232 1.087.078 2.172.194 3.251.348a39.742 39.742 0 0 1 8.245 2.323c2.787 1.084 5.342 2.361 7.665 3.832l-6.387 14.284a44.632 44.632 0 0 0-6.62-4.064c-2.322-1.162-4.838-1.742-7.548-1.742h-.93c-1.78.232-3.444 1.045-4.993 2.438-1.548 1.316-2.322 2.749-2.322 4.297v.697c.077.232.193.464.348.697.155.542.426 1.045.813 1.51.387.464.813.89 1.277 1.277.852.697 2.09 1.355 3.717 1.974 1.625.542 3.329 1.084 5.11 1.626 1.47.387 2.902.774 4.296 1.161 1.394.31 2.555.62 3.484.93 4.335 1.548 7.587 4.141 9.755 7.78 2.167 3.561 3.29 7.355 3.367 11.38v.581c0 .465-.038.93-.116 1.394v1.277c-.464 4.026-1.78 7.858-3.948 11.497-2.09 3.639-4.916 6.426-8.477 8.362a37.056 37.056 0 0 1-4.065 1.625 82.487 82.487 0 0 1-4.18 1.046c-1.15.23-2.314.386-3.484.464-1.116.152-2.241.23-3.368.232h-1.278c-4.645-.154-9.212-1.161-13.703-3.02-4.49-1.935-8.477-4.49-11.96-7.664l9.289-14.865zM225.567 5.869c-6.348 3.484-11.303 8.517-14.864 15.097l-.001-.001a36.874 36.874 0 0 0-2.555 5.922 43.756 43.756 0 0 0-1.625 6.039 23.473 23.473 0 0 0-.465 3.135 39.604 39.604 0 0 0-.116 3.02c0 6.813 1.858 13.394 5.574 19.742 3.716 6.271 8.826 11.11 15.329 14.516a37.931 37.931 0 0 0 7.432 2.903 46.962 46.962 0 0 0 7.897 1.394h1.51c.539.077 1.082.116 1.626.116 7.586 0 14.826-2.052 21.716-6.155 6.89-4.18 11.961-10.025 15.212-17.535a36.052 36.052 0 0 0 1.51-4.645c.458-1.594.769-3.226.929-4.877.155-.775.233-1.549.233-2.323.077-.852.116-1.665.116-2.439 0-6.424-1.51-12.58-4.529-18.464-3.019-5.961-7.277-10.722-12.774-14.284a39.432 39.432 0 0 0-8.129-3.948 41.119 41.119 0 0 0-8.478-2.09c-.929-.078-1.896-.155-2.903-.233a33.727 33.727 0 0 0-2.787-.116c-6.89 0-13.51 1.742-19.858 5.226zm73.145 70.081V1.976h19.51l27.871 37.974a37.233 37.233 0 0 1 1.974 3.484 53.559 53.559 0 0 1 1.974 3.6l1.394 3.02c.464 1.006.929 1.973 1.393 2.902a23.283 23.283 0 0 0-.348-2.438c-.077-.774-.155-1.587-.232-2.439a91.291 91.291 0 0 1-.349-4.761c-.08-1.663-.119-3.329-.116-4.994V1.976h19.393V75.95h-19.393L323.68 37.744c-.774-.929-1.51-2.013-2.206-3.251a65.85 65.85 0 0 1-1.974-4.065c-.45-.975-.914-1.943-1.394-2.903-.359-.94-.747-1.87-1.161-2.787.387 2.4.697 4.839.929 7.316.232 2.477.342 4.955.348 7.432V75.95h-19.51zm107.46-73.974L380.74 75.95h19.974l3.832-13.355h28.568l3.716 13.355h20.206L431.372 1.976h-25.2zm2.672 46.335l7.548-24.503c.307-1.075.579-2.16.813-3.252a42.74 42.74 0 0 0 .812-3.367c.077-.155.117-.271.117-.349 0-.154.038-.309.116-.464.077-.465.155-.891.232-1.278.155-.464.271-.89.348-1.277.078.387.155.813.233 1.277.077.388.193.813.348 1.278.242 1.283.513 2.561.813 3.832.376 1.204.763 2.404 1.161 3.6l7.549 24.503h-20.09zm-145.302-.752c.232-.774.426-1.587.58-2.439.233-.851.388-1.703.465-2.555.078-.541.116-1.083.116-1.625.078-.542.116-1.046.116-1.51a8.46 8.46 0 0 0-.116-1.394v-1.393c-.387-3.33-1.393-6.542-3.02-9.639-1.625-3.097-3.87-5.497-6.735-7.2a30.79 30.79 0 0 0-2.322-1.045c-.774-.31-1.549-.58-2.323-.813a24.037 24.037 0 0 0-2.322-.348 11.817 11.817 0 0 0-2.323-.233c-3.948 0-7.587 1.24-10.916 3.717-3.329 2.477-5.652 5.767-6.968 9.87l-.232.465v.464c-.239.723-.433 1.46-.58 2.207-.155.697-.31 1.432-.465 2.206l-.232 1.626v2.439c0 .232.038.503.116.813.232 4.103 1.47 8.013 3.716 11.729 2.322 3.638 5.497 6.038 9.522 7.2l1.394.464c.464.078.968.155 1.51.232l1.393.233h1.394c4.103 0 7.78-1.2 11.032-3.6 3.329-2.478 5.729-5.768 7.2-9.871zm-94.001 26.533a33.616 33.616 0 0 0 11.845-5.11h.001c4.49-3.252 7.935-7.432 10.335-12.542 2.4-5.11 3.716-10.413 3.949-15.91v-2.903c0-.465-.039-.929-.117-1.393-.309-5.266-1.664-10.375-4.064-15.33-2.4-4.954-5.768-8.941-10.103-11.96a30.345 30.345 0 0 0-11.264-5.11 72.528 72.528 0 0 0-12.31-1.742 53.741 53.741 0 0 0-3.6-.116h-25.084V75.95h23.806c1.24 0 2.479-.039 3.716-.116a80.464 80.464 0 0 0 12.89-1.742zm-20.555-14.749c.232 0 .465.039.697.116h.813c.31 0 .58.04.813.117h3.135c.852-.078 1.665-.155 2.439-.233a30.615 30.615 0 0 0 5.922-1.045c1.936-.542 3.678-1.355 5.226-2.439 2.478-1.78 4.297-4.18 5.458-7.2a25.728 25.728 0 0 0 1.858-9.638v-.93c0-.309-.038-.619-.116-.928a23.141 23.141 0 0 0-2.09-8.478c-1.239-2.787-2.942-4.993-5.11-6.62a13.339 13.339 0 0 0-5.458-2.67 30.68 30.68 0 0 0-6.039-.813h-7.548v40.761zM69.076 1.975v73.974h45.406V59.343H88.934V46.801h24.039V31.007H88.934v-12.89h25.548V1.975H69.076zm282.347 196.383c-.113.291-.17.583-.17.877 0 .718.247 1.269.74 1.649.495.384 1.07.574 1.72.574a2.15 2.15 0 0 1-.304 1.01 2.92 2.92 0 0 1-.676.76 4.517 4.517 0 0 1-.857.539 9.123 9.123 0 0 1-.828.352l1.35 1.99.098-.047.03-.014.056-.026c.062-.029.124-.056.186-.083.206-.088.446-.208.726-.352.308-.163.606-.343.893-.54.302-.203.585-.434.843-.691a5.984 5.984 0 0 0 1.296-1.92 6.004 6.004 0 0 0 .455-2.358c0-.451-.066-.877-.202-1.281a3.133 3.133 0 0 0-.572-1.044 2.926 2.926 0 0 0-1.061-.727 3.432 3.432 0 0 0-1.298-.252c-.405 0-.77.074-1.095.22-.31.135-.591.329-.827.572a2.385 2.385 0 0 0-.503.792zm7.667.877c0-.293.057-.586.167-.877.113-.293.282-.556.506-.792.227-.235.5-.428.825-.572.327-.145.69-.22 1.096-.22.45 0 .883.084 1.297.252.417.17.77.41 1.061.727.25.292.44.64.574 1.044.134.405.202.831.202 1.281a5.994 5.994 0 0 1-.455 2.358 6.017 6.017 0 0 1-1.298 1.92 5.715 5.715 0 0 1-.845.691 8.181 8.181 0 0 1-.893.54c-.28.145-.52.264-.725.352-.124.054-.248.111-.37.17l-1.348-1.99c.247-.089.52-.207.825-.352.304-.146.59-.326.86-.539.268-.214.494-.467.673-.76.181-.292.282-.628.304-1.01a2.72 2.72 0 0 1-1.719-.574c-.49-.38-.737-.931-.737-1.648v-.001zM94.36 141.394c.113-.291.17-.584.17-.875h.001c0-.719-.248-1.268-.74-1.649a2.731 2.731 0 0 0-1.718-.572c.023-.383.123-.721.303-1.013.18-.292.403-.545.673-.758.27-.214.557-.393.86-.539.27-.13.545-.248.825-.352l-1.348-1.988c-.044.022-.167.08-.37.167-.203.089-.445.208-.725.352a8.676 8.676 0 0 0-.893.54 5.563 5.563 0 0 0-.844.69 6.004 6.004 0 0 0-1.297 1.92 6.028 6.028 0 0 0-.455 2.36c-.002.435.066.867.202 1.28.122.382.317.737.573 1.045a2.92 2.92 0 0 0 1.06.725c.412.168.852.253 1.297.252a2.641 2.641 0 0 0 1.923-.792c.219-.228.39-.498.503-.793zm-7.666-.875a2.454 2.454 0 0 1-.673 1.67 2.606 2.606 0 0 1-.826.571c-.326.146-.692.22-1.096.22a3.417 3.417 0 0 1-1.298-.252 2.942 2.942 0 0 1-1.06-.726 3.094 3.094 0 0 1-.573-1.045 4.004 4.004 0 0 1-.202-1.28c0-.852.15-1.64.455-2.36a5.984 5.984 0 0 1 1.297-1.92c.247-.248.527-.477.843-.691.314-.212.612-.393.893-.54.28-.144.52-.262.724-.35l.057-.026c.169-.076.274-.123.315-.144l1.347 1.988c-.248.09-.522.208-.826.353-.303.147-.59.326-.857.538a2.956 2.956 0 0 0-.676.759c-.179.292-.28.63-.302 1.012.65 0 1.224.19 1.718.573.493.382.74.93.74 1.65zm249.165 56.874h-3.815l11.881-20.636h3.776l-11.842 20.636zm-3.996 1.488c-1.236 0-2.181.98-2.181 2.218s.946 2.18 2.181 2.18c1.232 0 2.217-.944 2.217-2.18a2.206 2.206 0 0 0-2.217-2.218zm-25.262-7.415l-1.09 1.888c.835 2.471 4.139 1.091 5.269-.871l1.815-3.124c1.345-2.29-1.634-3.961-5.994 2.107zm24.002 4.868c-.218-.58-.872-1.163-1.417-1.307l-.255.292a23.56 23.56 0 0 1-4.542 4.104c.47-1.411.717-3.119.983-4.965.412-2.859.872-6.049 2.285-8.985l-2.835-1.527c-.278.382-.615.853-1.001 1.392l-.001.001c-1.777 2.483-4.584 6.404-7.39 9.688.006.01.016.018.021.025l-.02-.011a.105.105 0 0 0-.025-.014l-.253.292c-2.727 3.16-5.377 5.666-7.05 5.666-.834 0-1.634-.836-1.634-2.543v-1.562c2.652.327 5.45-1.418 7.23-4.504l1.016-1.743c3.522-6.03-2.217-8.03-6.068-4.504l5.375-9.337h-3.779l-10.775 18.695a2.97 2.97 0 0 0-.689-.457l-.256.292c-2.723 3.16-6.211 5.666-8.863 5.666-2.325 0-3.705-1.453-1.961-4.504l3.884-6.757c2.18-3.742 6.032-3.124 3.778.8l-.544.944h3.09l.545-.944c2.034-3.488.071-6.104-3.015-6.104-3.051 0-5.487 1.6-7.085 4.36l-3.718 6.38a3.057 3.057 0 0 1-.059-.036c-.06-.036-.119-.072-.174-.096l-.255.292c-2.724 3.16-5.375 5.666-7.047 5.666-.836 0-1.306-.58-.436-2.07l8.066-14.133h-3.78l-6.719 11.734c-2.873 2.615-5.085 4.068-5.814 3.742-.876-.37-.127-1.616.364-2.432l.109-.183 7.374-12.861h-3.778l-7.338 12.695c-.506.461-1.309.891-2.033 1.28-.444.238-.858.46-1.157.664.471-1.412.717-3.12.984-4.967v-.001c.412-2.858.873-6.047 2.285-8.982l-2.832-1.527c-1.563 2.143-10.283 13.698-13.698 17.693.325.472.872.945 1.416 1.308 2.143-2.47 9.338-11.734 10.682-13.514-.501 1.318-.743 2.99-.98 4.628-.469 3.237-.919 6.344-3.308 6.344-1.27 0-1.78-1.382-1.78-1.382l-2.361 1.236s.69 3.05 4.14 3.05c.334 0 .636-.03.964-.063l.092-.009a.07.07 0 0 0 .02-.003.142.142 0 0 0 .018-.008.1.1 0 0 0 .015-.007.148.148 0 0 1 .032-.014l.005-.002.003-.001.013-.001c1.92-.254 4.578-1.138 6.36-2.37-.012 1.537.916 2.478 2.5 2.478 2.068 0 4.395-1.889 6.21-3.632-.361 2.035.835 3.632 3.235 3.632 2.346 0 4.959-1.886 7.437-4.363.034 2.51 1.968 4.363 5.126 4.363 3.066 0 6.114-1.713 8.741-4.016l-2.105 3.654h3.816l4.323-7.52v3.014c0 3.232.617 4.868 3.67 4.868 3.123 0 6.721-3.341 9.845-6.975l-.007-.01c-.006-.007-.012-.015-.013-.024.014.012.031.023.047.034 1.713-1.974 3.265-4.065 4.503-5.734.311-.419.603-.812.872-1.17-.5 1.318-.741 2.988-.978 4.626-.469 3.238-.919 6.347-3.309 6.347-1.27 0-1.78-1.382-1.78-1.382l-2.362 1.236s.691 3.05 4.142 3.05c.328 0 .626-.029.952-.062l.104-.01a.108.108 0 0 0 .047-.015.13.13 0 0 1 .058-.02c3.853-.512 7.668-3.562 10.501-6.87l.001.002zm-114.774-1.086h.183l2.76-4.722c2.288-3.925-1.344-5.705-3.997-1.2l-1.816 3.088-2.87 4.977c-2.253 3.924 2.071 4.504 3.85 1.454l.037-.073a2.465 2.465 0 0 1-.363-1.269c0-1.238.981-2.255 2.216-2.255zm-25.247 14.131c-.8 1.417-2.072 1.2-2.072.184 0-.98.909-2.106 3.815-3.234l-1.743 3.05zm-34.845-8.427c1.562 0 3.815-1.708 6.103-5.303l2.941-5.16c1.854-3.416-2.178-4.323-4.213-.801l-5.267 9.193c-.871 1.491-.399 2.071.436 2.071zm-5.951-20.053c1.126-1.927 2.362-2.762 3.415-2.762 1.418 0 2.071.944 2.071 2.325 0 3.524-4.364 10.833-10.172 9.881h-.763l5.449-9.444zm92.523 14.386l.254-.292.001.001c.51.218 1.163.8 1.418 1.311-3.126 3.633-6.72 6.975-9.846 6.975-3.053 0-4.178-2.577-2.58-5.376l4.904-8.538c1.636-2.798-.944-3.741-6.721 3.489l-5.776 10.063h-3.815l2.54-4.394c-1.686.93-3.554 1.45-4.934 1.45h-.835c-4.238 5.358-11.266 4.155-10.746-1.122-3.252 3.219-6.366 5.178-9.525 6.172l-2.906 4.978c-2.722 4.65-8.282 3.886-8.282.253 0-2.832 3.197-4.941 8.32-6.465l2.071-3.56c-1.709 1.524-3.778 3.05-5.595 3.05-1.882 0-2.841-1.332-2.388-3.41-2.174 1.99-4.407 3.41-6.44 3.41-3.051 0-4.177-2.576-2.579-5.376l4.904-8.534c1.635-2.799-.945-3.742-6.722 3.488l-5.776 10.063h-3.814l1.392-2.411c-1.942 1.649-3.91 2.773-5.72 2.773-1.924 0-3.088-1.015-3.268-2.469-1.817 1.489-3.706 2.469-5.232 2.469-2.675 0-3.871-1.981-3.048-4.355l-.224.213c-2.49 2.369-4.353 4.142-8.457 4.142-5.34 0-6.901-5.084-4.25-9.662l1.125-1.964c-3.05-1.598-4.758-4.505-4.758-7.518 0-2.546 1.197-5.122 3.887-7.05l1.235 2.218c-1.634 1.27-2.434 3.014-2.434 4.757 0 2.108 1.164 4.215 3.38 5.378l5.886-10.137c1.706-2.978 4.177-4.432 6.248-4.432 2.796 0 5.013 2.215 5.013 5.63 0 1.49-.473 3.233-1.526 5.086-2.979 5.195-7.557 7.267-11.59 7.267-.761 0-1.452-.077-2.142-.184l-1.055 1.852c-2.25 3.852-.689 6.431 1.89 6.431 3.675 0 5.759-2.417 8.413-5.496l.147-.171.254-.292c.271.073.568.255.828.488l3.903-6.736c1.596-2.763 4.432-4.36 6.465-4.36 2.471 0 4.106 2.216 3.961 3.814h2.143l-6.104 10.68c-.871 1.492-.399 2.072.436 2.072 1.673 0 4.325-2.507 7.048-5.667l.254-.292c.125.058.245.125.359.202l6.038-10.445h3.78l-1.417 2.469c1.888-1.962 3.596-2.834 5.231-2.834 2.107 0 3.669 2.072 2.034 4.942l-5.449 9.553c-.871 1.492-.399 2.072.436 2.072 1.672 0 4.323-2.507 7.048-5.667l.254-.292c.115.054.226.116.331.187l6.028-10.43h3.778l-7.375 12.86-.047.08-.064.106c-.49.818-1.235 2.061-.361 2.43.726.326 2.979-1.163 5.886-3.85l6.683-11.626h3.779l-10.355 17.73c2.978-1.275 5.63-3.6 8.755-7.195l.254-.291c.119.054.233.118.342.19l1.62-2.77 1.852-3.233c2.181-3.778 4.432-4.94 7.339-4.94 3.562 0 5.668 3.739 3.38 7.701l-3.56 6.14c1.889-.037 3.997-.947 5.703-2.799l.255-.292c.17.08.332.177.482.29l6.088-10.533h3.779l-1.417 2.469c1.89-1.962 3.595-2.833 5.231-2.833 2.105 0 3.671 2.071 2.035 4.941l-5.45 9.553c-.871 1.492-.4 2.072.436 2.072 1.672 0 4.325-2.507 7.047-5.667zm118.885-35.864c-2.29 3.741-4.615 5.521-6.212 5.521-.835 0-1.307-.58-.437-2.07l5.267-9.193c2.035-3.524 6.067-2.615 4.214.8h.035l-2.867 4.942zm-42.291 5.521c1.561 0 3.814-1.708 6.104-5.302l2.941-5.161c1.852-3.415-2.18-4.324-4.214-.8l-5.268 9.193c-.87 1.49-.399 2.07.437 2.07zm-33.813 8.428c-.797 1.417-2.07 1.2-2.07.184 0-.981.872-2.107 3.779-3.234l-1.709 3.05zm11.445-31.241c-1.055 0-2.29.834-3.417 2.76l-5.448 9.445h.763c9.627 2.23 14.096-12.205 8.102-12.205zm74.247 16.857l-.255.29c-2.72 3.16-5.374 5.667-7.047 5.667-.835 0-1.307-.58-.437-2.071l12.789-22.124h-3.779l-5.557 9.591c-.654-1.054-1.89-1.962-3.453-1.962-2.035 0-4.867 1.599-6.466 4.359l-3.698 6.38-.039-.023-.025-.015a1.635 1.635 0 0 0-.17-.094l-.255.292c-2.723 3.16-5 5.666-6.672 5.666-.837 0-1.307-.58-.438-2.07l5.45-9.555c1.637-2.87.072-4.942-2.034-4.942-1.636 0-3.34.871-5.232 2.835l1.417-2.47h-3.779l-6.037 10.447a2.657 2.657 0 0 0-.36-.203l-.256.292c-2.723 3.16-5.374 5.666-7.046 5.666-.835 0-1.306-.58-.436-2.07l6.103-10.682h-2.144c.146-1.598-1.488-3.815-3.96-3.815-2.035 0-4.87 1.599-6.468 4.358l-3.652 6.306-.206.234c-2.722 3.159-5.75 5.665-7.42 5.665-.837 0-1.307-.58-.437-2.07l3.778-6.611c1.307-2.29.689-3.633-.545-5.123l-2.106-2.544c-.545-.69-.545-1.453.218-2.18l-1.962-2.143c-2.144 1.927-2.325 4.069-.982 5.813l.329.436-.134.189v.001c-1.658 2.342-3.856 5.447-6.263 8.275.041.059.086.117.134.175.04.048.081.097.124.145-3.113 3.58-5.759 5.895-8.73 7.162l4.795-8.21h-3.778l-.399.655c-1.998 3.524-4.288 6.031-7.23 6.031-2.58 0-3.05-2.579-.8-6.43l1.055-1.852a13.6 13.6 0 0 0 2.142.181c13.443 0 19.946-17.982 8.104-17.982-2.072 0-4.544 1.454-6.25 4.432l-5.885 10.135c-2.216-1.161-3.378-3.268-3.378-5.375 0-1.743.8-3.488 2.432-4.758l-1.233-2.217c-2.69 1.926-3.888 4.504-3.888 7.047 0 3.016 1.709 5.922 4.76 7.52l-1.127 1.963c-2.652 4.578-2.18 9.663 3.162 9.663 1.598 0 2.941-.472 4.105-1.2l-.983 1.71c-5.12 1.56-8.282 3.631-8.282 6.465 0 3.632 5.56 4.396 8.282-.254l2.907-4.977c3.925-1.235 7.776-3.923 11.918-8.719a2.168 2.168 0 0 0-.236-.355c1.678-1.971 3.102-3.874 5.95-7.746l.507.619c.473.616.654 1.38.218 2.144l-3.997 6.937c-1.599 2.795-.472 5.374 2.58 5.374 1.899 0 4.348-1.239 6.385-3.024-.044 1.738 1.144 3.024 3.299 3.024 1.525 0 3.415-.98 5.23-2.47.183 1.454 1.347 2.47 3.27 2.47 1.81 0 3.777-1.125 5.72-2.774l-1.392 2.412h3.813l5.777-10.065c5.777-7.229 8.357-6.284 6.72-3.487l-4.903 8.538c-1.597 2.798-.473 5.376 2.578 5.376 2.01 0 3.836-1.384 5.982-3.333-.2 1.893 1.004 3.333 3.282 3.333 1.525 0 3.414-.98 5.232-2.47.182 1.455 1.345 2.47 3.269 2.47 3.125 0 6.72-3.341 9.845-6.976-.256-.504-.909-1.085-1.42-1.302zm-108.501-4.506c2.254-3.924-1.599-4.541-3.779-.799l-2.434 4.25c1.416.508 3.851.582 5.668-2.507l.545-.944zm-6.83 12.788c4.287 0 8.54-3.341 11.662-6.975-.253-.51-.908-1.09-1.417-1.308l-.253.292c-2.726 3.16-6.213 5.666-8.867 5.666-2.325 0-3.705-1.453-1.962-4.505l.363-.653c2.435 1.016 7.012.545 9.846-4.36l.545-.944c2.035-3.489.073-6.104-3.016-6.104-3.05 0-5.484 1.598-7.083 4.359l-3.679 6.313c-.038-.02-.076-.048-.112-.064l-.255.292c-2.724 3.16-5.375 5.666-7.047 5.666-.836 0-1.306-.58-.437-2.071l5.45-9.555c1.635-2.87.072-4.942-2.036-4.942-1.635 0-3.379.909-5.266 2.871l6.03-10.5h-3.778l-10.656 18.49a2.487 2.487 0 0 0-.432-.252l-.255.291c-2.725 3.161-5.376 5.667-7.048 5.667-.835 0-1.307-.58-.437-2.07l8.102-14.134h3.09l1.09-1.817h-3.125l3.56-6.175h-3.778l-3.56 6.175h-3.415l-1.09 1.817h3.45l-7.593 13.153c-1.598 2.799-.472 5.377 2.579 5.377 1.878 0 3.926-1.213 5.94-2.964l-1.499 2.6h3.815l5.74-9.992c5.813-7.302 8.393-6.357 6.758-3.56l-4.905 8.538c-1.598 2.798-.472 5.376 2.58 5.376 2.296 0 4.846-1.805 7.276-4.205.11 2.431 2.033 4.207 5.125 4.207zm-123.695-12.789c2.254-3.924-1.596-4.541-3.776-.799l-2.435 4.249c1.416.509 3.852.582 5.667-2.506l.544-.944zm19.343 8.392l5.268-9.191c2.034-3.526 6.067-2.617 4.213.799l-2.942 5.159c-2.288 3.595-4.543 5.304-6.104 5.304-.834 0-1.307-.581-.435-2.07v-.001zm57.76-8.392c2.254-3.924-1.596-4.541-3.776-.799l-2.435 4.249c1.416.508 3.851.582 5.666-2.506l.545-.944zm-61.584 8.727c-.627 2.24.57 4.06 3.134 4.06 1.525 0 3.415-.98 5.23-2.469.183 1.453 1.346 2.47 3.27 2.47 2.013 0 4.218-1.39 6.369-3.346-.418 2.042.539 3.346 2.4 3.346 2.073 0 4.398-1.89 6.213-3.634-.364 2.036.837 3.634 3.234 3.634 3.125 0 6.72-3.342 9.845-6.976a.717.717 0 0 0-.056-.088c-.015-.021-.031-.042-.044-.063 1.64-1.908 3.128-3.907 4.33-5.522v-.001h.001v-.001c.328-.441.635-.852.917-1.226-.501 1.318-.743 2.989-.98 4.628-.469 3.236-.919 6.344-3.308 6.344-1.27 0-1.78-1.382-1.78-1.382l-2.363 1.235s.69 3.052 4.142 3.052c.324 0 .618-.029.937-.061l.117-.012a.128.128 0 0 0 .055-.018c.018-.008.035-.017.053-.017 2.776-.367 5.529-2.056 7.913-4.209.058 2.486 1.986 4.317 5.125 4.317 4.287 0 8.538-3.341 11.662-6.976-.254-.51-.908-1.09-1.416-1.308l-.254.292c-2.725 3.16-6.213 5.667-8.863 5.667-2.326 0-3.707-1.454-1.963-4.505l.364-.654c2.432 1.016 7.01.545 9.845-4.36l.545-.943c2.034-3.489.072-6.104-3.015-6.104-3.05 0-5.487 1.598-7.083 4.358l-3.67 6.294c-.016-.005-.032-.014-.048-.022-.019-.009-.037-.019-.056-.024l-.254.291a23.603 23.603 0 0 1-4.542 4.106c.471-1.412.717-3.12.984-4.967.413-2.858.874-6.048 2.286-8.984l-2.833-1.526c-.284.39-.629.872-1.025 1.424-1.779 2.485-4.573 6.387-7.368 9.656l.035.046.024.028.002.003.001.001.048.06-.135.153c-2.724 3.16-5.376 5.667-7.048 5.667-.835 0-1.307-.58-.436-2.07l8.065-14.135h-3.779l-6.72 11.734c-2.87 2.616-5.085 4.069-5.814 3.742-.876-.37-.125-1.618.366-2.435l.001-.002.009-.015.059-.098.039-.065 7.373-12.86h-3.778l-6.013 10.405-.034-.021a1.962 1.962 0 0 0-.253-.14l-.254.29c-2.725 3.16-5.376 5.667-7.048 5.667-.835 0-1.307-.58-.436-2.07l6.103-10.682h-2.144c.146-1.598-1.488-3.816-3.96-3.816-2.034 0-4.868 1.6-6.466 4.36l-3.83 6.612a2.782 2.782 0 0 0-.576-.363l-.254.29c-2.724 3.16-5.858 5.667-8.51 5.667-2.324 0-3.706-1.453-1.963-4.504l3.887-6.756c2.18-3.742 6.031-3.125 3.777.798l-.545.945h3.09l.544-.945c2.034-3.487.073-6.104-3.014-6.104-3.052 0-5.134 1.6-6.73 4.36l-3.756 6.443a2.404 2.404 0 0 0-.347-.194l-.254.29c-2.724 3.16-5.947 5.667-8.598 5.667-2.326 0-3.707-1.453-1.963-4.504l.363-.654c2.434 1.018 7.012.545 9.846-4.358l.545-.946c2.034-3.486.072-6.103-3.016-6.103-3.05 0-5.486 1.598-7.083 4.36l-3.96 6.792c-2.363 4.033-.327 7.738 4.14 7.738 3.329 0 6.013-2.015 8.788-4.617-.098 2.637 1.858 4.617 5.121 4.617 3.088.006 5.8-1.728 8.441-4.054zm-33.821-19.191l-3.051 5.231v.001c3.851-.073 5.996-.909 7.446-3.633 1.89-3.561-1.635-6.356-4.395-1.599zm-7.119 22.451c-2.253 0-4.033-.508-5.45-1.306.654-.764 1.307-1.709 1.89-2.689l6.356-11.008 1.017.108c8.866 1.855 5.341 14.895-3.813 14.895zm9.337-15.475c7.628-2.581 8.209-12.135.689-12.135-2.071 0-4.541 1.453-6.248 4.432L99.94 160.872c-.42.755-.906 1.472-1.452 2.141-2.616-3.595-1.853-8.971 1.816-11.334l-1.527-1.926c-7.92 5.05-5.594 19.617 7.63 19.617 11.3.002 16.53-13.546 9.265-18.379z"
      fill="#fff"></path>
  </symbol>
  <symbol viewBox="0 0 188 46" xmlns="http://www.w3.org/2000/svg" id="welcome_text-1">
    <path fill-rule="evenodd" clip-rule="evenodd" d="M60.824 37.364V45.1H40.008V.353h20.816v7.67h-13.2v10.804h10.535v7.67H47.624v10.866l13.2.001zM82.17 45.1v-7.736l-10.597-.001V.353h-7.616V45.1H82.17zm106.53 0v-7.736h-13.201V26.497h10.535v-7.67h-10.535V8.024H188.7V.353h-20.816V45.1H188.7zM163.459.354h-7.551l-6.793 21.605L142.324.354h-7.552v44.747h7.617v-21.99l2.982 11.378h7.425l3.047-11.378v21.99h7.616V.354zm-39.46 7.67h-5.523v29.34H124l-.001-29.34zm7.68-2.939c0-2.622-2.158-4.731-4.698-4.731l-11.424.001c-2.6 0-4.696 2.109-4.696 4.73V40.37c0 2.557 2.096 4.73 4.696 4.73h11.424c2.54 0 4.698-2.173 4.698-4.73V5.085zM98.971 28.606l7.678-1.79v13.552c0 2.557-2.157 4.73-4.696 4.73H90.528c-2.6 0-4.695-2.173-4.695-4.73V5.084c0-2.622 2.095-4.73 4.695-4.73h11.423c2.54 0 4.697 2.108 4.697 4.73v9.077l-7.678 1.79V8.023h-5.522v29.34h5.522l.001-8.757zM36.241.354h-7.677l-.57 37.01h-.762L22.344.354h-7.552l-4.76 37.01h-.824L8.573.354H.957L2.099 45.1h14.533l1.967-18.474L20.567 45.1h14.47L36.241.354z"
      fill="#81B3D3"></path>
  </symbol>
  <symbol viewBox="0 0 256 29" xmlns="http://www.w3.org/2000/svg" id="welcome_text-2">
    <path fill-rule="evenodd" clip-rule="evenodd" d="M80.774.09l-2.845 4.877H75.2l-.87 1.434h2.757l-6.069 10.383c-1.277 2.208-.376 4.246 2.062 4.246 1.223 0 2.538-.637 3.853-1.621l-.778 1.334h3.046l4.588-7.887c4.644-5.767 6.706-5.02 5.399-2.81l-3.92 6.74c-1.278 2.21-.377 4.248 2.061 4.248 1.796 0 3.788-1.37 5.693-3.205.146 1.857 1.667 3.205 4.09 3.205 3.423 0 6.82-2.64 9.316-5.508-.197-.403-.719-.861-1.126-1.033l-.203.226c-2.178 2.497-4.964 4.475-7.082 4.475-1.86 0-2.964-1.146-1.57-3.555l.29-.52c1.946.805 5.604.431 7.868-3.44l.437-.747c1.625-2.753.058-4.818-2.41-4.818-2.439 0-4.383 1.263-5.66 3.441l-2.93 4.965-.176.2c-2.177 2.494-4.295 4.472-5.631 4.472-.666 0-1.046-.46-.35-1.635l4.355-7.543c1.306-2.265.06-3.9-1.624-3.9-1.307 0-2.702.717-4.21 2.265L91.224.09h-3.019l-8.423 14.438-.17.19c-2.176 2.496-4.297 4.474-5.633 4.474-.667 0-1.044-.46-.346-1.635l6.472-11.158h2.467l.872-1.433h-2.496L83.793.091 80.774.09zM48.465 4.969L51.31.094h3.019l-2.846 4.873h2.499l-.872 1.436h-2.465l-6.476 11.158c-.697 1.175-.319 1.635.348 1.635 1.335 0 3.457-1.979 5.633-4.475l.156-.176 1.237-2.09 1.48-2.553c1.742-2.984 3.54-3.9 5.862-3.9 2.846 0 4.529 2.953 2.701 6.08l-2.845 4.846c1.511-.029 3.194-.744 4.558-2.207l.205-.228c.406.172.928.629 1.128 1.033-1.54 1.806-4.384 2.896-6.184 2.896h-.666c-3.269 4.084-8.616 3.341-8.61-.461-1.866 1.769-3.803 3.073-5.557 3.073-2.438 0-3.339-2.038-2.061-4.247l6.068-10.383h-2.757l.87-1.435h2.73zm10.798 5.998c1.028-1.742.562-2.947-.422-3.037-.765-.07-1.843.536-2.77 2.092l-1.451 2.437-2.294 3.928c-1.8 3.097 1.657 3.556 3.079 1.146l.03-.056a1.94 1.94 0 0 1-.291-1.004c0-.975.783-1.779 1.77-1.779h.145l2.204-3.727zm43.312-.031c1.012-1.744.48-2.661-.489-2.604v.001c-.752.044-1.769.678-2.532 1.97l-1.946 3.357c1.133.402 3.08.46 4.53-1.978l.437-.746zm43.829-8.067c-1.714 1.52-1.858 3.214-.783 4.59l.262.344-.062.087c-1.329 1.856-3.103 4.336-5.048 6.597l.002.003-.203.229c-1.365 1.461-3.046 2.18-4.558 2.209l2.843-4.848c1.83-3.126.147-6.08-2.7-6.08-2.32 0-4.12.918-5.86 3.9l-1.484 2.553-1.238 2.092-.154.176c-2.497 2.84-4.643 4.671-7.025 5.676l6.763-11.414h-1.77c0-1.234-1.276-2.87-3.164-2.87-1.624 0-3.89 1.265-5.168 3.444l-4.238 7.227c-1.278 2.208-.378 4.246 2.06 4.246.843 0 1.86-.374 2.877-1.004l-.843 1.404c-4.064 1.233-6.62 2.868-6.62 5.106 0 2.869 4.442 3.471 6.62-.2l2.292-3.93c2.416-.743 4.783-2.147 7.24-4.464-.021 3.817 5.337 4.567 8.61.476h.668c1.8 0 4.645-1.089 6.184-2.896 1.449-1.664 2.58-3.155 4.99-6.395l.405.489c.377.487.525 1.09.175 1.691l-3.193 5.479c-1.28 2.21-.379 4.246 2.061 4.246 1.53 0 3.204-.995 4.842-2.422-.05 1.386.887 2.422 2.619 2.422.84 0 1.857-.373 2.874-1.004l-.842 1.402c-4.065 1.233-6.616 2.868-6.616 5.106 0 2.869 4.44 3.47 6.616-.2l2.292-3.93c2.46-.758 4.87-2.206 7.377-4.599.136 1.868 1.658 3.225 4.09 3.225 2.458 0 4.899-1.363 7.004-3.19-.117 3.905 5.31 4.703 8.612.578h.668c.945 0 2.175-.308 3.357-.853-.813 2.073-.066 3.465 1.661 3.465 1.656 0 3.513-1.492 4.964-2.868-.29 1.605.667 2.868 2.584 2.868 2.496 0 5.37-2.637 7.868-5.506l-.002-.002c1.355-1.544 2.583-3.176 3.57-4.486.26-.345.504-.669.728-.962-.4 1.04-.594 2.359-.784 3.652-.375 2.555-.736 5.008-2.642 5.008-1.016 0-1.42-1.09-1.42-1.09l-1.89.975s.551 2.412 3.31 2.412c.268 0 .512-.026.774-.053l.066-.007c.015 0 .03-.007.046-.014a.114.114 0 0 1 .045-.013c3.076-.4 6.124-2.81 8.388-5.42-.173-.459-.696-.918-1.13-1.034l-.203.229a18.85 18.85 0 0 1-3.63 3.24c.375-1.114.572-2.461.785-3.918.331-2.258.699-4.778 1.829-7.096l-2.264-1.205c-.231.313-.512.701-.835 1.146-1.423 1.963-3.646 5.03-5.871 7.602v.002l-.203.229c-2.176 2.496-4.295 4.472-5.631 4.472-.667 0-1.045-.459-.347-1.634l6.444-11.158h-3.02l-5.37 9.265c-2.293 2.064-4.062 3.212-4.644 2.953-.7-.291-.101-1.276.291-1.92l.087-.144 5.893-10.152h-3.02l-4.734 8.092-.199.226c-1.364 1.463-3.047 2.18-4.558 2.21l2.845-4.849c1.828-3.127.15-6.08-2.699-6.08-2.323 0-4.123.918-5.864 3.903l-1.482 2.55-1.237 2.09-.155.178c-2.176 2.496-4.964 4.473-7.083 4.473-1.858 0-2.96-1.146-1.567-3.555l.29-.518c1.944.804 5.604.43 7.867-3.443l.438-.746c1.623-2.754.058-4.819-2.41-4.819-2.44 0-4.387 1.265-5.663 3.444l-2.926 4.965-.175.197c-2.499 2.84-4.645 4.673-7.028 5.678l6.764-11.416h-1.772c0-1.234-1.277-2.868-3.164-2.868-1.625 0-3.889 1.263-5.167 3.442l-2.896 4.937-.008-.004-.203.23c-2.176 2.495-4.298 4.474-5.634 4.474-.667 0-1.042-.46-.346-1.635l3.018-5.22c1.045-1.807.551-2.87-.437-4.046l-1.683-2.01c-.435-.545-.435-1.146.175-1.72l-1.568-1.694zm-9.87 8.098c1.027-1.742.56-2.948-.424-3.038v.001c-.764-.07-1.84.536-2.768 2.092l-1.453 2.437-2.292 3.928c-1.8 3.097 1.656 3.556 3.078 1.146l.028-.056a1.949 1.949 0 0 1-.29-1.004c0-.975.784-1.779 1.77-1.779h.147l2.204-3.727zm49.734-3.038c.984.09 1.453 1.296.426 3.038l-2.206 3.727h-.147c-.986 0-1.768.804-1.768 1.779 0 .371.116.716.289 1.004l-.03.056c-1.421 2.41-4.875 1.951-3.075-1.146l2.292-3.928 1.451-2.437c.927-1.556 2.003-2.162 2.768-2.092v-.001zm-11.215 3.007c1.012-1.743.483-2.659-.485-2.602v.001c-.752.044-1.77.678-2.532 1.97l-1.948 3.355c1.133.402 3.079.46 4.53-1.978l.435-.746zm-52.888-2.401c1.023-.006 1.678.884.845 2.4l-2.292 3.96c-1.83 2.897-3.66 4.3-4.938 4.3-.667 0-1.045-.459-.349-1.634l4.212-7.256c.71-1.217 1.727-1.765 2.522-1.77zm39.768 2.4c.833-1.516.178-2.406-.845-2.4-.795.005-1.812.553-2.522 1.77l-4.21 7.256c-.694 1.175-.318 1.634.349 1.634 1.276 0 3.108-1.403 4.936-4.3l2.292-3.96zM115.75 23.443l-.001.001c-2.29.888-3.017 1.776-3.017 2.55 0 .803 1.016.974 1.654-.144l1.363-2.406h.001v-.001zm38.924.001l.001-.001v.001h-.001zm0 0l-1.361 2.406c-.64 1.118-1.656.947-1.656.144 0-.774.726-1.662 3.017-2.55zM.025 11.831h28.922v1.95H.025v-1.95zm255.952 0h-28.922v1.95h28.922v-1.95z"
      fill="#766458"></path>
  </symbol>
  
  <symbol viewBox="0 0 1200 57" xmlns="http://www.w3.org/2000/svg" id="welcome-bottom_shape">
    <path d="M0 57V0l250 24V0l350 57L950 0v24l250-24v57H0z" ></path>
  </symbol>

  <symbol viewBox="0 0 20 16" xmlns="http://www.w3.org/2000/svg" id="youtube">
    <path fill-rule="evenodd" clip-rule="evenodd" d="M3 0h14c1.65 0 3 1.35 3 3v10c0 1.65-1.35 3-3 3H3c-1.65 0-3-1.35-3-3V3c0-1.65 1.35-3 3-3zm3.027 4.002v7.996L15.014 8 6.027 4.002z"></path>
  </symbol>
</svg>